<mxfile host="app.diagrams.net" modified="2024-05-04T07:26:45.317Z" agent="Mozilla/5.0 (Macintosh; Intel Mac OS X 10_15_7) AppleWebKit/537.36 (KHTML, like Gecko) Chrome/124.0.0.0 Safari/537.36" version="24.3.1" etag="3qytDTZBBD9sZWpzNPVA" type="github">
  <diagram name="第 1 页" id="ZH6cl7m3xcGeVYRq7iUp">
    <mxGraphModel>
      <root>
        <mxCell id="0" />
        <mxCell id="1" parent="0" />
      </root>
    </mxGraphModel>
  </diagram>
</mxfile>
